<svg xmlns="http://www.w3.org/2000/svg" width="500" height="500" viewBox="0 0 300 300"><path fill="#fff" fill-rule="evenodd" d="M0 0h300v300H0Z"></path><path fill-rule="evenodd" d="M202.058 259.888c-3.572-.567-6.752-.741-6.752-2.658a2.671 2.671 0 0 1 1.131-2.045 6.788 6.788 0 0 1 3.31-.655 4.248 4.248 0 0 1 2.963 1.307 4.437 4.437 0 0 1 1.046 2.223h5.794a7.118 7.118 0 0 0-2.7-5.4 10.934 10.934 0 0 0-6.579-2.615c-2.742 0-5.444.089-7.316 1.482a7.512 7.512 0 0 0-3.225 5.576 7.986 7.986 0 0 0 .35 3.309 11.236 11.236 0 0 0 2.96 3.181c1.525.872 5.1 1.22 7.058 1.743 1.611.391 3.572.479 4.009 2.092a2.06 2.06 0 0 1-.915 2.4 6.364 6.364 0 0 1-3.486.957 4.571 4.571 0 0 1-3.53-1.306 11.145 11.145 0 0 1-1.438-2.876h-5.794a9.741 9.741 0 0 0 3.441 6.753 11.173 11.173 0 0 0 7.231 2.134c3.052 0 5.709-.523 7.67-1.917a7.95 7.95 0 0 0 2.96-6.14 7.249 7.249 0 0 0-1.349-4.4c-1.7-2.223-4.747-2.831-6.839-3.138Zm-75.538 14.9h5.882v-24.4h-5.882Zm0-26.052h5.925v-5.882h-5.925Zm-8.582 4.879a13.734 13.734 0 0 0-8.015-2.963h-.305a12.242 12.242 0 0 0 0 24.483h.305a11.547 11.547 0 0 0 7.973-3.354l.042 3.008h5.576v-31.935h-5.576v10.759Zm-7.972 16.51h-.044a7.274 7.274 0 0 1 0-14.549h.044a7.274 7.274 0 0 1 0 14.549Zm44.476-16.6a13.729 13.729 0 0 0-8.015-2.962h-.305a12.264 12.264 0 1 0 0 24.527h.305a11.873 11.873 0 0 0 7.973-3.4v3.007h5.575v-31.884H154.4Zm-8.014 16.557a7.275 7.275 0 1 1 7.32-7.318 7.362 7.362 0 0 1-7.32 7.318Zm-56.894-19.691v2.31a6.333 6.333 0 0 0-2.962-2.092 14.36 14.36 0 0 0-4.358-.872h-.26a13 13 0 0 0-5.01.914 11.818 11.818 0 0 0-4.008 2.876 12.418 12.418 0 0 0-3.485 8.843 12.579 12.579 0 0 0 12.764 12.9h.044a13.39 13.39 0 0 0 4.4-.917 5.505 5.505 0 0 0 2.875-1.742v2.223l5.664-.042-.044-24.44Zm-7.274 19.343h-.044a7.231 7.231 0 1 1 0-14.462h.044a7.231 7.231 0 1 1 0 14.462Zm99.668-19.43.042 2.308a7.285 7.285 0 0 0-2.96-2.092 14.666 14.666 0 0 0-4.356-.826h-.261a13.831 13.831 0 0 0-5.01.872 11.581 11.581 0 0 0-4.009 2.876 11.813 11.813 0 0 0-2.615 4.1 13.41 13.41 0 0 0-.915 4.79 12.54 12.54 0 0 0 3.706 9.192 12.34 12.34 0 0 0 9.1 3.659 12.007 12.007 0 0 0 4.4-.914 5.651 5.651 0 0 0 2.918-1.743v2.223l5.664-.044-.086-24.4h-5.618Zm-7.274 19.386a7.253 7.253 0 1 1 7.274-7.276 7.318 7.318 0 0 1-7.27 7.276Zm40.514-32.281a.155.155 0 0 1-.089-.042 6.862 6.862 0 1 0 0 13.724h.089a6.841 6.841 0 0 0 0-13.682Zm0 12.59a5.707 5.707 0 1 1 5.748-5.706 5.743 5.743 0 0 1-5.744 5.706Z"></path><path fill-rule="evenodd" d="M217.177 245.381a4.721 4.721 0 0 0-.826-.652 2.209 2.209 0 0 0 1.48-.742 1.88 1.88 0 0 0 .523-1.307 2.832 2.832 0 0 0-.35-1.219 2.185 2.185 0 0 0-.873-.7 5.564 5.564 0 0 0-1.742-.173h-3.18v7.447h1.525v-3.136h.261a3.216 3.216 0 0 1 .781.087.788.788 0 0 1 .4.263c0 .042.042.042.042.087a4.373 4.373 0 0 1 .826 1.046l1.088 1.653h1.787l-.915-1.437a9.058 9.058 0 0 0-.823-1.22Zm-2-1.653h-1.438v-1.874h1.438a3.349 3.349 0 0 1 .826.044.856.856 0 0 1 .565.261.672.672 0 0 1 .219.565.923.923 0 0 1-.176.61c-.128.089-.258.218-.392.305-.173.044-.52.044-1.043.089Zm-89.219-39.3h-49.7c14.854 9.192 32.237 15.291 52.014 19.386l-2.31-19.386Zm37.9.044-2.963 18.208c19.866-3.659 37.378-9.408 52.582-18.208h-49.624Zm-5.709-.087-27.313.042a93.6 93.6 0 0 0 14.289 21.086c5.485-6.532 9.144-13.283 13.02-21.124Zm73.493-12.11-173.865-.085c-5.794-4.618-9.715-7.013-14.376-13.156h202.828a117.134 117.134 0 0 1-14.591 13.245Zm25.913-28.311-224.7.087a97.541 97.541 0 0 1-8.578-14.725H266.14a80.479 80.479 0 0 1-8.585 14.636Zm-160.79-30.583-78.457.044c-7.187-16.6-11.718-33.719-13.9-54.977 40.431 7.187 71.623 23.785 92.357 54.933Zm80.376.131h-64.519c-1.438-41.516 10.064-83.643 32.281-109 22.566 24.705 34.242 66.652 32.237 109Zm95.62-.087-79.984.039c22.086-31.061 53.8-48.616 94.881-54.847-2.568 20.785-7.361 38.427-14.897 54.808Zm7.536-91.046a.547.547 0 0 0-.261-.044 15.378 15.378 0 1 0 0 30.755h.261a15.356 15.356 0 0 0 0-30.712Zm0 28.315a12.829 12.829 0 1 1 12.895-12.851 12.941 12.941 0 0 1-12.895 12.851Z"></path><path fill-rule="evenodd" d="M284.783 60.282a10.189 10.189 0 0 0-1.784-1.438 5.215 5.215 0 0 0 3.352-1.612 4.3 4.3 0 0 0 1.091-3.005 5.609 5.609 0 0 0-.784-2.7 3.847 3.847 0 0 0-2.006-1.524 10.481 10.481 0 0 0-3.919-.521h-6.968v16.77h3.268v-7.016h.7a5.86 5.86 0 0 1 1.742.174 3.114 3.114 0 0 1 .826.567c.045.044.134.087.176.131.261.392.87 1.177 1.784 2.484l2.4 3.659h4.053l-2-3.223a16.739 16.739 0 0 0-1.917-2.745Zm-4.487-3.746h-3.265v-4.139h3.265a16.561 16.561 0 0 1 1.83.044 1.88 1.88 0 0 1 1.307.654 1.593 1.593 0 0 1 .437 1.306 2.633 2.633 0 0 1-.307 1.307 2.359 2.359 0 0 1-1 .654 14.389 14.389 0 0 1-2.268.174Z"></path></svg>