<svg xmlns="http://www.w3.org/2000/svg" width="500" height="500" viewBox="0 0 394 260.863"><path d="M28.183 260.843c-.167-.019-.735-.078-1.261-.131a29.865 29.865 0 0 1-13.965-5.35A31.161 31.161 0 0 1 .875 237.39a32.3 32.3 0 0 1-.528-12.2 31.055 31.055 0 0 1 18.491-23.968 29.83 29.83 0 0 1 7.735-2.067 38.24 38.24 0 0 1 7.047 0 29.438 29.438 0 0 1 9.222 2.744 27.7 27.7 0 0 1 8.223 5.92 29.576 29.576 0 0 1 5.554 7.5l.363.666-1.285.95c-1.77 1.309-5.921 4.271-7.273 5.19l-1.117.759-.459-1a18.866 18.866 0 0 0-1.627-2.944 17.966 17.966 0 0 0-11.338-7.584 19.768 19.768 0 0 0-7.743.136 19.644 19.644 0 0 0-7.264 3.494A24.46 24.46 0 0 0 15.833 218a19.165 19.165 0 0 0-3.733 16.182 20.687 20.687 0 0 0 2.718 6.379 18.536 18.536 0 0 0 13.188 8.239 24.881 24.881 0 0 0 4.18 0 18.474 18.474 0 0 0 12.138-6.825 19.19 19.19 0 0 0 2.2-3.436 8.068 8.068 0 0 1 .616-1.087c.031 0 2.218 1.543 4.86 3.43l4.8 3.429-.487.92a30.747 30.747 0 0 1-4.366 6.033 29.256 29.256 0 0 1-8.936 6.634 29.934 29.934 0 0 1-9.613 2.827c-.758.088-4.674.175-5.215.118Zm41.062-31.225v-30.057H80.9v21.575h30.449v-21.575h11.657v60.114h-11.655v-26.446H80.9v26.447H69.245Zm65.541 24.729 13.322-30.057 10.96-24.728h16.355l13.249 29.686c7.287 16.328 13.323 29.853 13.415 30.056l.166.37h-13.959l-2.695-5.959-2.695-5.959-15.6.021-15.6.021-2.665 5.937-2.665 5.937h-13.951l2.363-5.328Zm43.188-18.717c-.049-.212-10.64-23.885-10.685-23.884S157.2 235.22 157.038 235.67c-.018.05 4 .081 10.468.081 8.928.001 10.494-.017 10.468-.121Zm33.683-6.012v-30.057h16.4l12.832 18.022 12.832 18.022.022-18.024.022-18.024h11.744v60.116l-4.712-.023-4.712-.023-16.275-22.594c-8.952-12.427-16.3-22.6-16.341-22.6s-.065 10.175-.065 22.616v22.619h-11.747Zm75.077 0v-30.057h42.019v12.092h-30.274v12.005h28.013v12.092h-28.013v12.005H333.1v11.918h-46.366Zm62.811 0v-30.057h11.745v48.2H394v11.918h-44.455Zm-201.262-45.345a94.3 94.3 0 0 1-37.786-10.3 88.978 88.978 0 0 1-22.682-16.81 86.417 86.417 0 0 1-13.285-16.615l-1.537-2.535 2.181-1.157c4.25-2.256 23.626-12.176 23.777-12.176a18.713 18.713 0 0 1 1.779 2.421c10.1 15.049 25.893 24.839 44.378 27.5a92.326 92.326 0 0 0 16.468-.126 76.759 76.759 0 0 0 11.6-2.636c.194-.065-.177-.667-1.03-1.673a90.926 90.926 0 0 1-17.272-83.911A91.569 91.569 0 0 1 171.037 35.1a24.441 24.441 0 0 0 1.948-2.612c0-.355-5.613-1.849-9.292-2.473a73.278 73.278 0 0 0-19.719-.265A66.283 66.283 0 0 0 119.7 38.7a64.022 64.022 0 0 0-19.094 18.63l-2.245 3.346-2.857-1.5c-1.571-.825-7.409-3.85-12.973-6.723S72.4 47.218 72.377 47.2c-.088-.078 3.395-5.618 4.828-7.679A104.968 104.968 0 0 1 95 20.438 92.041 92.041 0 0 1 145.225.241a128.506 128.506 0 0 1 15.409 0 88.228 88.228 0 0 1 32.546 9.2l5.022 2.5 1.683-.957a96.28 96.28 0 0 1 11.21-5.18 92.628 92.628 0 0 1 53.99-3.228A90.175 90.175 0 0 1 307.4 26.11a91.218 91.218 0 0 1 15.74 20.025l.625 1.087-10.165 5.244a3833.08 3833.08 0 0 0-13 6.73l-2.832 1.485-2.141-3.229a63.343 63.343 0 0 0-46.747-28.067 71.572 71.572 0 0 0-18.964 1.1 51.112 51.112 0 0 0-6.821 1.949 18.97 18.97 0 0 0 1.535 2.032 91.972 91.972 0 0 1 19.789 47.4 127.13 127.13 0 0 1 .124 19.408 91.081 91.081 0 0 1-19.507 47.61c-2.444 3.008-2.339 2.8-1.556 3.1.37.143 2.1.622 3.849 1.065a64.9 64.9 0 0 0 27.407.911 63.077 63.077 0 0 0 40.471-26.576c.879-1.294 1.673-2.439 1.764-2.545a29.389 29.389 0 0 1 4.843 2.151c5.1 2.554 21.056 10.814 21.227 10.985.285.285-4.8 7.836-7.921 11.758a127.942 127.942 0 0 1-14.393 14.376 91.534 91.534 0 0 1-100.292 9.575l-2.31-1.258-2.865 1.516a91.536 91.536 0 0 1-46.975 10.329Zm53-52.182a64.433 64.433 0 0 0 14.064-33.846 82.491 82.491 0 0 0-.47-16.129 60.667 60.667 0 0 0-11.534-27.03c-1.137-1.51-2.794-3.528-3.681-4.485l-1.613-1.74-1.5 1.622a76.4 76.4 0 0 0-6.916 9.18 62.275 62.275 0 0 0-7.6 46.217 65.6 65.6 0 0 0 14.341 28.054l1.6 1.834.7-.662c.385-.364 1.555-1.721 2.6-3.015Z"></path></svg>