<svg xmlns="http://www.w3.org/2000/svg" width="500" height="500" viewBox="0 0 424.226 204.812"><g><path fill-rule="evenodd" d="M0 5.902h45.1a198.9 198.9 0 0 1 31.9 2.5c10.4 1.6 20.2 6.2 29.4 13.6a73.69 73.69 0 0 1 20.1 27.9 94.894 94.894 0 0 1 8 34.9 10.931 10.931 0 0 1 .3 2.6v4.4a98.828 98.828 0 0 1-7.8 36.2 70.157 70.157 0 0 1-21.3 28.6 64.673 64.673 0 0 1-26.6 11.8 183.838 183.838 0 0 1-28.9 3.3H0Zm33 135.906c1.1 0 2.3 0 3.6.1s2.7.1 4.1.1h2.7a14.309 14.309 0 0 0 2.9.3H49c1.6 0 3.2-.1 4.8-.2 1.6 0 3.2-.2 4.9-.3a77.92 77.92 0 0 0 14.3-2.6 34.851 34.851 0 0 0 12.1-6.3c5.3-4.5 9.3-10.6 12-18.2a73.064 73.064 0 0 0 4.2-23.7v-3.4a74.447 74.447 0 0 0-4.1-23.5 45.088 45.088 0 0 0-11.6-18.6 29.507 29.507 0 0 0-12.9-7.2 67.053 67.053 0 0 0-15-2.2 19.588 19.588 0 0 0-3.4-.3H33v106Zm194.71 27.206-10.1-11.9a54.03 54.03 0 0 1-14.9 9.8 51.19 51.19 0 0 1-17.2 4.6 10.8 10.8 0 0 1-1.8.2h-1.8c-1.3 0-2.5-.1-3.8-.2s-2.5-.3-3.8-.4a52.689 52.689 0 0 1-7.5-2.1 38.708 38.708 0 0 1-7.1-3.4 31.539 31.539 0 0 1-9.8-11 37.464 37.464 0 0 1-4.5-14.1 10.328 10.328 0 0 1-.1-1.7v-2.8a7.6 7.6 0 0 0 .1-1.5c0-.2.1-.3.1-.4a1.093 1.093 0 0 0 .1-.6c0-.2.1-.5.1-.9a2.5 2.5 0 0 0 .1-.8 32.117 32.117 0 0 1 9.1-17.7 100.869 100.869 0 0 1 15.8-12.5 58.277 58.277 0 0 1-8.9-12.3 27.6 27.6 0 0 1-3.6-13.5 13.711 13.711 0 0 1 .2-2.8c.1-.9.2-1.9.3-2.7.2-.7.3-1.3.5-1.9a18.051 18.051 0 0 0 .5-1.9 22.327 22.327 0 0 1 11.6-13.7 40.274 40.274 0 0 1 40.4 2.2c6.7 4.3 10.1 10.8 10.1 19.2v2.1a23.412 23.412 0 0 1-5.9 13.7 89.16 89.16 0 0 1-11 10.3 14.552 14.552 0 0 0-2.6 1.7c-.8.6-1.6 1.2-2.4 1.7l20.3 23.7c1.1-1 2.1-2 3.1-3a39.529 39.529 0 0 0 2.8-3.1c2.1-2 4.1-4.1 6.1-6.2 2-2.2 3.9-4.3 5.7-6.5l13.5 14.3c-1.5 1.6-3.1 3.2-4.6 4.8q-2.287 2.414-4.5 4.9-2.551 2.4-4.8 4.8l-4.5 4.8 22.2 26.8h-27.497Zm-57.6-24.9a32.559 32.559 0 0 0 3.8 4.2 16.508 16.508 0 0 0 4 2.7 15.323 15.323 0 0 0 3.8 1.6 16.437 16.437 0 0 0 3.8.5 18.669 18.669 0 0 0 7.5-1.6 39.938 39.938 0 0 0 6.4-3.8 40.419 40.419 0 0 0 5.8-5.1l-22.7-27.1c-.5.3-1 .7-1.6 1a15.149 15.149 0 0 0-1.3 1 56.576 56.576 0 0 0-6.8 7 23.707 23.707 0 0 0-4.6 8.1 16.394 16.394 0 0 0-.5 2.1 8.236 8.236 0 0 0-.2 2.2 9.354 9.354 0 0 0 .7 3.7 24.669 24.669 0 0 0 1.899 3.498Zm18.2-52.006a1.425 1.425 0 0 0 .4-.3 3.279 3.279 0 0 0 .6-.3c.1-.1.3-.2.4-.4.1-.1.2-.1.4-.1 2.5-1.8 4.8-3.7 7-5.6a14.934 14.934 0 0 0 4.2-7.7v-2.3a10.158 10.158 0 0 0-3.5-8 13.934 13.934 0 0 0-7.4-3.6h-2.6a10.832 10.832 0 0 0-5.8 2.6 8.625 8.625 0 0 0-3.1 6.5 4.279 4.279 0 0 0-.1.5 1.484 1.484 0 0 0-.1.7c0 .1-.1.2-.1.4a1.484 1.484 0 0 0-.1.7 12.5 12.5 0 0 0 2.1 7 71.825 71.825 0 0 0 4.5 6.3 14.1 14.1 0 0 1 1.7 1.8l1.5 1.8Zm235.915-10.7v5.5a116.929 116.929 0 0 1-7.5 42.1c-5 13.1-14.6 23.7-29.1 31.8a58.567 58.567 0 0 1-15.2 6.9 108.177 108.177 0 0 1-16.5 3.5c-2 .1-3.9.3-5.7.4-1.9 0-3.7.1-5.5.1h-3.2a16.959 16.959 0 0 1-3.2-.3 95.174 95.174 0 0 1-38.7-11 81.775 81.775 0 0 1-30.1-26 85.448 85.448 0 0 1-9.1-18.7 94.112 94.112 0 0 1-4.6-20.1c-.1-1.3-.3-2.8-.4-4.2 0-1.5-.1-3-.1-4.5a89.414 89.414 0 0 1 12.4-45.4 80.451 80.451 0 0 1 35.1-32.7 59.839 59.839 0 0 1 9.9-3.9c3.4-1.1 6.8-2 10.4-2.9a87.643 87.643 0 0 1 10.1-1.5 83.912 83.912 0 0 1 9.9-.5h2.4a94.585 94.585 0 0 1 37.9 9.1 96.815 96.815 0 0 1 31.7 24l-24 17.5a79.116 79.116 0 0 0-20.9-15.1 54.693 54.693 0 0 0-23.6-5.3 78.7 78.7 0 0 0-8.3.5q-4.435.6-8.8 1.6c-12.3 3.8-21.5 10.9-27.8 21.3a64.222 64.222 0 0 0-9.3 33.3 25.722 25.722 0 0 0 .1 2.7c.1.9.3 1.8.4 2.7a6.027 6.027 0 0 0 .2 1.4 6.032 6.032 0 0 1 .1 1.4 4.873 4.873 0 0 1 .4 1.3 6.512 6.512 0 0 1 .1 1.3c2.2 12.9 7.7 23.1 16.7 30.4s18.7 11.8 29.2 13.3a22.045 22.045 0 0 0 4.6.7c1.6.1 3.1.1 4.5.1a46.643 46.643 0 0 0 26.7-8c7.8-5.4 11.7-13 11.7-23l.5-1.1h-40.8v-28.7h77.409ZM115.408 186.614h6.3c4.4 0 8.1 3.9 8.1 8.8a8.628 8.628 0 0 1-8.1 8.8h-6.3Zm2.7 2.1v13.4h2.9c4-.1 6-3.3 6-6.6 0-3.4-2-6.2-5.3-6.7Zm22.3-2.5a9.214 9.214 0 1 1-9.7 9.2 9.424 9.424 0 0 1 9.701-9.203Zm0 2.2a6.951 6.951 0 1 1-7 7 7.042 7.042 0 0 1 7.001-7.001Zm10.5-1.8h2.6v15.5h5v2.1h-7.6v-17.6Zm16-.5a10.407 10.407 0 0 1 5.5 1.6v3.2a7.051 7.051 0 1 0 0 8.9v3.3a10.449 10.449 0 0 1-5.5 1.6 9.31 9.31 0 1 1 0-18.6Zm9 16h6.3v2.1h-9v-17.6h9v2h-6.3v5.2h6.3v2.1h-6.3v6.2Zm16.2.9a4.558 4.558 0 0 1-2.1 1.1.361.361 0 0 0-.3.1h-.3c-.3 0-.5-.1-.8-.1a2.965 2.965 0 0 1-.8-.4 5.468 5.468 0 0 1-.6-.8l-.3-.9v-.5h.1v-.2a2.366 2.366 0 0 1 .7-1.3l1.2-.9-.6-.9a1.393 1.393 0 0 1-.3-.9v-.4a.1.1 0 0 0 .1-.1 2.063 2.063 0 0 1 .6-1 2.286 2.286 0 0 1 1.1-.3h.3a2.377 2.377 0 0 1 1.3.5 1.735 1.735 0 0 1 .5 1.3 1.588 1.588 0 0 1-.4 1.2 4.308 4.308 0 0 1-1.1.9l1.9 2.3c.1-.2.3-.4.5-.705.2-.2.3-.4.5-.6l.6.6c-.1.2-.3.4-.4.6a2.646 2.646 0 0 1-.5.6l-.1.1a.1.1 0 0 1-.1.1l1.4 1.6h-1.2l-.9-1Zm-2.3.3a1.619 1.619 0 0 0 .9-.3c.2-.2.5-.4.7-.6h.1l.1-.1-2.2-2.5c0 .1 0 .1-.1.1l-.1.1c-.2.1-.3.2-.5.3a1.793 1.793 0 0 0-.4.5c-.1 0-.1.1-.1.2a.376.376 0 0 0-.1.3.313.313 0 0 0-.1.2v.3a1.658 1.658 0 0 0 .4 1.1 1.746 1.746 0 0 0 1.2.4h.2Zm-.8-6.2v.2a1.266 1.266 0 0 0 .1.6 2.054 2.054 0 0 0 .4.5l.2.2.1.1h.1a.1.1 0 0 0 .1-.1 2.2 2.2 0 0 0 .6-.4 1.6 1.6 0 0 0 .4-.7v-.2a.907.907 0 0 0-.3-.7 1.4 1.4 0 0 0-.6-.2h-.2a.738.738 0 0 0-.6.2.551.551 0 0 0-.3.5Zm19.3-11.1a10.272 10.272 0 0 1 8.4 4.4l-2.3 1.2a7.136 7.136 0 0 0-6-3.3 7.061 7.061 0 0 0-7.1 7.1 6.98 6.98 0 0 0 7.1 7c3.3 0 5.9-1.6 6.1-5h-5.7v-2.1h8.5v.1c0 5.5-3 9.4-9 9.4s-9.8-4.2-9.8-9.4a9.613 9.613 0 0 1 9.804-9.403Zm7.5 18.2 7.3-17.6h1.7l7.3 17.6h-2.8l-2-5h-6.7l-2 5h-2.8Zm5.8-7.2 2.4-6.3 2.3 6.3Zm36.1 7.2 7.2-17.6h1.7l7.3 17.6h-2.8l-2-5h-6.7l-2 5Zm5.7-7.2 2.4-6.3 2.4 6.3Zm29.1 7.2 7.3-17.6h1.7l7.3 17.6h-2.8l-2.1-5h-6.6l-2 5Zm5.8-7.2 2.3-6.3 2.4 6.3h-4.705Zm-59.9-8.4c1.8.2 2.4.9 2.4 2.7a2.489 2.489 0 0 1-2.7 2.6h-2.3v-5.3h2.6Zm.2 7.4h.1c1.3 0 3.6.3 3.6 3.2 0 2.3-2 2.9-3.9 2.9h-2.6v-6.1h2.8Zm-3.4 8.2h4.5c3.1 0 5.4-2.1 5.4-5a4.86 4.86 0 0 0-3.4-4.7 4.419 4.419 0 0 0-2.7-7.9c-1.4-.1-2.9 0-4.3 0h-1.6v17.6h2.1Zm16.6-15.6c1.7.2 2.3.9 2.4 2.7a2.49 2.49 0 0 1-2.7 2.6h-2.3v-5.3h2.6Zm.1 7.4h.1c1.3 0 3.6.3 3.6 3.2 0 2.3-2 2.9-3.9 2.9h-2.5v-6.1h2.7Zm-3.4 8.2h4.6a4.97 4.97 0 0 0 5.3-5 4.864 4.864 0 0 0-3.4-4.7 3.931 3.931 0 0 0 1.8-3.6 4.119 4.119 0 0 0-4.4-4.3c-1.5-.1-2.9 0-4.4 0h-1.6v17.6h2.1Zm26.6-17.6h1.7l12.3 13v-13h2.4v17.6h-1.8l-12.1-12.9v12.9h-2.5v-17.6Z"></path></g></svg>