<svg xmlns="http://www.w3.org/2000/svg" width="500" height="500" viewBox="0 0 416.90301513671875 431.46759033203125"><path d="M83.227 60.406V79.9c-7.015 6.232-23.779 9.94-36.26 9.94C34.5 89.842 0 82.044 0 45.4S32.84.863 46.088.863c13.264 0 27.391 2.429 35.573 7.894V25.9a1.464 1.464 0 1 1-2.924 0c-.192-2.924-7.99-20.455-27.486-20.072-21.051.436-35.27 16.972-35.27 38.79S29.8 85.16 50.674 84.569c6.776-.192 13.839-2.333 17.259-5.178l.08-18.985c0-5.449-3.308-7.4-6.616-7.4a1.559 1.559 0 1 1 0-3.116h28.445c2.141 0 2.141 3.308 0 3.116-3.292 0-6.616 1.95-6.616 7.4ZM275.009 25.92c0 2.141-2.141 1.95-2.141 0-.208-2.924-7.99-21.046-27.486-20.647-21.048.416-35.282 17.547-35.282 39.361s13.647 41.118 34.5 40.543c20.855-.591 30.794-21.238 31.577-23.971s2.141-2.333 2.141-.192v15.98c-8.566 6.232-24.754 12.864-37.219 12.864s-46.967-7.8-46.967-44.442C194.131 8.757 226.875 0 240.123 0c13.264 0 26.7 3.308 34.9 8.757V25.92ZM414.566 2.141c3.116 0 3.116 2.924 0 2.924-3.324 0-6.632 1.95-6.632 7.4v64.9c0 5.449 3.308 7.4 6.632 7.4 3.116 0 3.116 3.9 0 3.9h-28.653c-3.116 0-3.116-3.9 0-3.9 3.324 0 6.632-1.95 6.632-7.4v-64.9c0-5.465-3.308-7.4-6.632-7.4-3.116 0-3.116-2.924 0-2.924h28.653Zm-227.85 0c3.116 0 3.116 2.924 0 2.924-3.308 0-6.616 1.95-6.616 7.4l-.384 42.588c0 20.391-16.54 35.381-36.947 35.381s-36.34-14.99-36.34-35.381V12.465c0-5.465-3.324-7.4-6.632-7.4-3.116 0-3.116-2.924 0-2.924h28.845c3.116 0 3.116 2.924 0 2.924-3.324 0-6.632 1.95-6.632 7.4l-.032 47.558a26.135 26.135 0 0 0 26.144 26.048c14.382 0 26.048-14.59 26.048-28.957l-.7-44.65c0-5.465-3.308-7.4-6.632-7.4-3.1 0-3.1-2.924 0-2.924h19.88Zm26.671 190.935a125.713 125.713 0 1 1 .032 225.373 125.671 125.671 0 1 1-.032-225.373Zm25.345 16.508a124.137 124.137 0 0 1 40.159 62.6h-26.047a100.853 100.853 0 0 0-39.456-50.484A100.965 100.965 0 0 0 174 272.148l-26.032.016a125.239 125.239 0 0 1 40.3-62.708 102.339 102.339 0 0 0-30.6-4.57 100.869 100.869 0 1 0 30.219 197.136 125.079 125.079 0 0 1-44.01-86.167h59.8v25.073l-29.085-.016a101.125 101.125 0 0 0 38.881 48.948 100.485 100.485 0 0 0 38.8-48.948l-29.085.016v-25.073h59.8a125.127 125.127 0 0 1-44.426 86.023 100.869 100.869 0 1 0 .176-192.293ZM370.316 25.92c0 2.141-2.141 1.95-2.141 0-.192-2.924-7.99-21.046-27.486-20.647-21.047.416-35.289 17.547-35.289 39.361s13.647 41.118 34.5 40.543 30.8-21.239 31.583-23.972 2.157-2.333 2.157-.192v15.981c-8.582 6.232-24.754 12.864-37.235 12.864-12.465 0-46.967-7.8-46.967-44.442C289.439 8.757 322.183 0 335.447 0c13.248 0 26.7 3.308 34.885 8.757V25.92Z"></path></svg>